:SAMPLES-PER-SECOND 30
:FRAME-RANGE 1-1770
:FULLY-SPECIFIED
:DEGREES
554
root  9.90538 38.3355 -35.6955 -179.163 -32.1752 179.046
RightUpLeg  -19.5036 3.56493 -3.84165
RightLeg  63.8879 -2.14109 -5.3356
RightFoot  -9.84481 -0.129633 4.80172
RightToes  -1.33073e-015 0 -3.6325e-017
Spine  -5.94461 -2.04954 -12.2484
Spine1  9.5721 -1.61186 -2.30651
HEad  24.1721 6.3171 -0.941367
LeftShoulder1  1.97738 -3.02114 -25.3491
LeftArm  12.3066 6.84921 -44.4526
LeftForeArm  32.12 -8.2087 -12.7896
LeftHand  -0.0534808 4.43027 4.00115
RightShoulder  1.3521 0.952388 25.6574
RightArm  -12.7629 6.10588 50.4416
RightForeArm  70.5722 -1.00926 9.93078
RightHand  0.0539271 -5.9039 -15.7072
LeftUpLeg  -14.1333 1.31778 2.13146
LeftLeg  31.8452 -1.52044 -0.635246
LeftFoot  -19.6361 -0.176526 -4.05648
LeftToes  1.09107e-011 -1.16422e-010 2.98337e-011
555
root  8.66104 38.8466 -36.5117 -177.844 -32.6735 179.995
RightUpLeg  -22.0557 0.711281 -2.2617
RightLeg  57.0483 -2.6657 -4.85875
RightFoot  -10.484 -0.119365 6.42203
RightToes  -1.33073e-015 0 -3.6325e-017
Spine  -4.62983 -3.5393 -13.317
Spine1  6.62148 -4.01472 1.48013
HEad  21.7996 4.5417 -1.34233
LeftShoulder1  2.32048 -4.3123 -24.5239
LeftArm  7.79161 6.0207 -45.7688
LeftForeArm  36.2253 -2.82528 -14.116
LeftHand  -0.0402349 4.66239 2.79828
RightShoulder  1.11513 0.29168 24.8188
RightArm  -11.6044 4.1592 49.4354
RightForeArm  69.2835 0.366931 10.6281
RightHand  0.073427 -6.08554 -15.055
LeftUpLeg  -11.6155 0.783694 1.84788
LeftLeg  27.1789 -1.18551 -0.289998
LeftFoot  -18.9487 -0.123357 -3.56308
LeftToes  1.09107e-011 -1.16422e-010 2.98337e-011
556
root  7.48602 39.3121 -37.3171 -176.714 -33.3922 -178.358
RightUpLeg  -24.2464 -1.27299 0.464756
RightLeg  48.1959 -4.76774 -6.01404
RightFoot  -10.6951 -0.112406 7.02875
RightToes  -1.33073e-015 0 -3.6325e-017
Spine  -3.37938 -5.01988 -14.045
Spine1  4.50151 -6.34342 6.21422
HEad  17.8297 3.42383 -0.897998
LeftShoulder1  2.47364 -5.30798 -22.6882
LeftArm  5.07358 5.62304 -48.269
LeftForeArm  38.8903 0.00578879 -14.2277
LeftHand  -0.0302103 5.15094 2.09421
RightShoulder  0.885656 -0.398439 24.1878
RightArm  -11.2713 3.18225 48.24
RightForeArm  69.3101 1.73076 10.7961
RightHand  0.0298964 -5.8037 -13.4053
LeftUpLeg  -9.40841 2.52642 2.47491
LeftLeg  22.3613 -3.11034 -0.767423
LeftFoot  -17.7451 -0.0374424 -2.57064
LeftToes  1.09107e-011 -1.16422e-010 2.98337e-011
557
root  6.39179 39.656 -38.1164 -175.663 -33.9996 -176.388
RightUpLeg  -26.1009 -0.60546 3.2401
RightLeg  37.9414 -7.92611 -6.83481
RightFoot  -10.1096 -0.152153 7.74425
RightToes  -1.33073e-015 0 -3.6325e-017
Spine  -1.69931 -6.36067 -14.5535
Spine1  2.46335 -8.49444 11.1223
HEad  13.3124 3.07415 0.160333
LeftShoulder1  2.42866 -5.75821 -20.6408
LeftArm  3.41481 5.8838 -50.4791
LeftForeArm  41.146 0.450106 -13.9148
LeftHand  -0.0276768 5.34395 2.16256
RightShoulder  0.633389 -1.24352 24.3229
RightArm  -10.5227 3.3017 46.5023
RightForeArm  68.943 2.38506 11.0396
RightHand  0.0301769 -5.83832 -12.6732
LeftUpLeg  -7.78921 4.6522 3.69048
LeftLeg  18.3386 -5.58826 -1.37976
LeftFoot  -16.6144 0.0243826 -1.63377
LeftToes  1.09107e-011 -1.16422e-010 2.98337e-011
558
root  5.354 39.8876 -38.9449 -174.519 -34.6916 -174.567
RightUpLeg  -27.5258 1.26991 5.21209
RightLeg  26.6217 -11.0374 -6.17201
RightFoot  -8.99382 -0.20311 6.9181
RightToes  -1.33073e-015 0 -3.6325e-017
Spine  -0.0836115 -7.59449 -15.3977
Spine1  0.970811 -10.5856 16.1032
HEad  9.23051 3.06316 1.68455
LeftShoulder1  2.43889 -6.46902 -18.6584
LeftArm  2.01461 7.44856 -52.0777
LeftForeArm  41.6702 -1.313 -13.3329
LeftHand  -0.0276272 5.33054 2.58114
RightShoulder  0.410049 -2.01131 25.1004
RightArm  -10.5537 3.6259 44.4638
RightForeArm  68.6992 2.96384 10.959
RightHand  0.0476514 -6.00061 -12.7136
LeftUpLeg  -6.68727 5.30647 4.8098
LeftLeg  15.1553 -6.87883 -1.47062
LeftFoot  -15.7434 0.0382923 -1.45984
LeftToes  1.09107e-011 -1.16422e-010 2.98337e-011
559
root  4.34522 39.9579 -39.8604 -173.288 -35.5361 -173.425
RightUpLeg  -28.8682 4.39395 5.47689
RightLeg  16.1888 -11.693 -3.97096
RightFoot  -8.99381 -0.209891 7.24735
RightToes  -1.33073e-015 0 -3.6325e-017
Spine  0.908199 -8.54865 -16.1422
Spine1  0.774978 -12.2598 19.5718
HEad  5.36849 2.10543 3.83113
LeftShoulder1  2.44278 -6.95481 -17.4201
LeftArm  2.04032 8.04347 -52.4643
LeftForeArm  40.4725 -3.64552 -12.8253
LeftHand  -0.0336354 5.04264 3.12352
RightShoulder  0.194596 -2.72707 26.4269
RightArm  -10.7069 3.02817 42.169
RightForeArm  66.7215 4.90013 10.7047
RightHand  0.070073 -6.15896 -13.4278
LeftUpLeg  -6.03799 5.52662 5.43928
LeftLeg  13.6687 -7.7597 -1.51047
LeftFoot  -15.3334 0.0529697 -1.11858
LeftToes  1.09107e-011 -1.16422e-010 2.98337e-011
560
root  3.34021 39.9504 -40.8295 -172.537 -36.4739 -172.512
RightUpLeg  -30.4299 7.56297 4.64941
RightLeg  8.88834 -7.95128 -1.77428
RightFoot  -9.43223 -0.197808 8.00618
RightToes  -1.33073e-015 0 -3.6325e-017
Spine  1.95941 -9.17326 -15.9225
Spine1  0.985285 -13.4249 21.3852
HEad  2.22958 0.344678 6.06107
LeftShoulder1  2.50235 -7.62665 -16.4206
LeftArm  3.45823 8.56853 -52.3361
LeftForeArm  37.695 -6.54001 -12.207
LeftHand  -0.0381874 4.96216 4.16504
RightShoulder  -0.0996234 -3.62255 27.7076
RightArm  -11.6656 1.67403 40.5681
RightForeArm  64.4135 6.4873 10.1482
RightHand  0.0936746 -6.25555 -14.8938
LeftUpLeg  -5.19763 5.18892 5.91174
LeftLeg  13.2368 -8.30828 -1.38796
LeftFoot  -15.2928 0.0370572 -1.58388
LeftToes  1.09107e-011 -1.16422e-010 2.98337e-011
561
root  2.3357 39.8734 -41.8736 -172.103 -37.2835 -171.684
RightUpLeg  -32.3921 8.99689 4.70816
RightLeg  5.90945 -2.11745 -1.37057
RightFoot  -9.85529 -0.184144 9.0068
RightToes  -1.33073e-015 0 -3.6325e-017
Spine  2.9447 -9.56696 -15.1632
Spine1  1.22393 -14.2013 22.4161
HEad  0.536072 -1.72032 7.61635
LeftShoulder1  2.50451 -7.92996 -15.7667
LeftArm  4.03968 8.74077 -52.0304
LeftForeArm  35.2906 -8.73083 -11.4155
LeftHand  -0.0443715 4.84451 4.84779
RightShoulder  -0.28038 -4.14555 28.277
RightArm  -11.8752 -0.900138 39.8173
RightForeArm  61.5954 8.61938 9.52587
RightHand  0.114104 -6.36867 -15.532
LeftUpLeg  -4.45295 4.41267 6.43429
LeftLeg  14.0302 -8.51218 -1.37034
LeftFoot  -15.403 0.00577736 -2.44077
LeftToes  1.09107e-011 -1.16422e-010 2.98337e-011
562
root  1.33464 39.7007 -43.0179 -171.871 -38.0617 -171.241
RightUpLeg  -34.614 10.6049 4.42927
RightLeg  7.58218 0.443386 -1.3908
RightFoot  -10.4082 -0.147706 9.41485
RightToes  -1.33073e-015 0 -3.6325e-017
Spine  4.02246 -9.81365 -14.5669
Spine1  1.46104 -14.6981 22.9577
HEad  0.307539 -3.68619 8.43659
LeftShoulder1  2.49269 -8.13171 -15.223
LeftArm  2.47006 8.91418 -51.9384
LeftForeArm  34.0878 -9.90863 -10.6517
LeftHand  -0.0551472 4.71216 6.0537
RightShoulder  -0.433463 -4.56522 29.029
RightArm  -11.8159 -3.20658 39.1222
RightForeArm  60.3886 9.88831 9.07887
RightHand  0.112961 -6.40809 -14.9018
LeftUpLeg  -3.88828 3.16801 6.95687
LeftLeg  16.4108 -8.38125 -1.89187
LeftFoot  -15.4931 -0.0398291 -3.65936
LeftToes  1.09107e-011 -1.16422e-010 2.98337e-011
563
root  0.330445 39.481 -44.2659 -171.708 -39.4394 -171.19
RightUpLeg  -36.7196 13.3955 2.68959
RightLeg  11.8886 -0.870743 -1.37817
RightFoot  -10.3305 -0.147498 8.7333
RightToes  -1.33073e-015 0 -3.6325e-017
Spine  4.83012 -10.2808 -14.2523
Spine1  2.26694 -15.5171 23.2612
HEad  1.13097 -5.41594 8.69555
LeftShoulder1  2.51225 -8.52524 -14.6087
LeftArm  0.160376 10.677 -52.4766
LeftForeArm  31.9585 -12.5929 -9.02939
LeftHand  -0.0619066 4.61475 6.42443
RightShoulder  -0.534455 -4.82595 29.6729
RightArm  -12.3696 -5.01461 38.7114
RightForeArm  61.7308 9.62348 9.0539
RightHand  0.0758787 -6.17155 -13.9823
LeftUpLeg  -3.5269 1.45001 7.48997
LeftLeg  19.6896 -8.31321 -2.91059
LeftFoot  -14.9223 -0.07617 -5.29306
LeftToes  1.09107e-011 -1.16422e-010 2.98337e-011
